<svg xmlns="http://www.w3.org/2000/svg" version="1.1" xmlns:xlink="http://www.w3.org/1999/xlink" xmlns:svgjs="http://svgjs.com/svgjs" width="1440" height="560" preserveAspectRatio="none" viewBox="0 0 1440 560"><g mask="url(&quot;#SvgjsMask1000&quot;)" fill="none"><rect width="1440" height="560" x="0" y="0" fill="#1e3266"></rect><path d="M1512 560L0 560 L0 318.75Q41.81 288.56, 72 330.37Q83.38 269.75, 144 281.14Q211.65 228.79, 264 296.45Q325.9 286.35, 336 348.25Q357.64 297.89, 408 319.54Q496.07 287.61, 528 375.68Q554.84 330.52, 600 357.37Q630.12 315.49, 672 345.6Q702.52 256.13, 792 286.65Q868.4 243.05, 912 319.46Q942.89 278.36, 984 309.25Q1029.91 235.16, 1104 281.07Q1159.49 264.56, 1176 320.06Q1239.97 312.03, 1248 376Q1265.27 321.27, 1320 338.54Q1333.46 280, 1392 293.47Q1467.97 249.44, 1512 325.41z" fill="#182f5d"></path><path d="M1464 560L0 560 L0 386.34Q53.16 319.5, 120 372.65Q216.04 348.69, 240 444.72Q253.42 338.14, 360 351.57Q403 322.57, 432 365.57Q517.05 330.62, 552 415.67Q606.84 350.5, 672 405.34Q715.5 328.84, 792 372.34Q845.44 305.78, 912 359.23Q993.86 321.09, 1032 402.94Q1107.51 358.44, 1152 433.95Q1153.31 363.26, 1224 364.57Q1278.64 299.22, 1344 353.86Q1429.55 319.4, 1464 404.95z" fill="#25467d"></path><path d="M1464 560L0 560 L0 497.15Q6.88 432.03, 72 438.92Q126.97 373.89, 192 428.86Q291.4 408.26, 312 507.67Q338.2 413.88, 432 440.08Q504.24 392.31, 552 464.55Q594.67 387.23, 672 429.9Q755.12 393.01, 792 476.13Q834.66 446.79, 864 489.45Q898.86 404.31, 984 439.17Q1025.56 408.73, 1056 450.29Q1102.56 376.85, 1176 423.41Q1231.79 407.2, 1248 462.99Q1292.79 435.78, 1320 480.58Q1327.23 415.81, 1392 423.04Q1446.91 405.96, 1464 460.87z" fill="#356cb1"></path><path d="M1488 560L0 560 L0 542.68Q37.61 460.28, 120 497.89Q190.73 448.62, 240 519.35Q305.33 512.68, 312 578.02Q332.01 478.03, 432 498.05Q478.03 472.08, 504 518.11Q579.02 473.13, 624 548.15Q636.17 488.32, 696 500.48Q769.58 454.06, 816 527.63Q871.07 510.7, 888 565.78Q889.56 495.34, 960 496.89Q1062.13 479.01, 1080 581.14Q1102.07 531.21, 1152 553.29Q1183.54 464.83, 1272 496.36Q1319.52 471.88, 1344 519.4Q1394.94 498.34, 1416 549.28Q1457.27 518.55, 1488 559.82z" fill="white"></path></g><defs><mask id="SvgjsMask1000"><rect width="1440" height="560" fill="#ffffff"></rect></mask></defs></svg>