<svg xmlns="http://www.w3.org/2000/svg" version="1.1" xmlns:xlink="http://www.w3.org/1999/xlink" xmlns:svgjs="http://svgjs.com/svgjs" width="1440" height="560" preserveAspectRatio="none" viewBox="0 0 1440 560"><g mask="url(&quot;#SvgjsMask1000&quot;)" fill="none"><rect width="1440" height="560" x="0" y="0" fill="#0e2a47"></rect><path d="M1172.73 484.71a40.5 40.5 0 1 0 57.96-56.58z" fill="#e73635"></path><path d="M1049.13 211.02a1.44 1.44 0 1 0-1.21 2.61z" stroke="#d3b714"></path><path d="M1334.66 190.14L1357.38 190.14L1357.38 198.58L1334.66 198.58z" fill="#d3b714"></path><path d="M190.5 462.48L195.02 462.48L195.02 467L190.5 467z" stroke="#d3b714"></path><path d="M1168.4 113.25a32.01 32.01 0 1 0-46.18 44.34z" stroke="#037b0b"></path><path d="M750.49 28.3 a13.84 13.84 0 1 0 27.68 0 a13.84 13.84 0 1 0 -27.68 0z" stroke="#d3b714"></path><path d="M1392.14 521.78L1398.03 521.78L1398.03 527.67L1392.14 527.67z" stroke="#d3b714"></path><path d="M380.44 110.23L387.76 110.23L387.76 133.27L380.44 133.27z" fill="#d3b714"></path><path d="M280.37 351.59L302.73 351.59L302.73 373.95L280.37 373.95z" stroke="#e73635"></path><path d="M28.01 476.31L46.25 476.31L46.25 494.55L28.01 494.55z" fill="#037b0b"></path><path d="M973.92 120.7L977.05 120.7L977.05 168.09L973.92 168.09z" stroke="#e73635"></path><path d="M257.85 280.8 a2.19 2.19 0 1 0 4.38 0 a2.19 2.19 0 1 0 -4.38 0z" fill="#d3b714"></path><path d="M1242.99 453.75 a27.24 27.24 0 1 0 54.48 0 a27.24 27.24 0 1 0 -54.48 0z" fill="#d3b714"></path><path d="M965.75 553.05L1002.14 553.05L1002.14 603.67L965.75 603.67z" stroke="#d3b714"></path><path d="M1433.94 58.04a37.43 37.43 0 1 0-4.3 74.74z" fill="#e73635"></path><path d="M950.87 256.8L970.94 256.8L970.94 276.87L950.87 276.87z" fill="#e73635"></path><path d="M1165.29 512.45L1220.57 512.45L1220.57 528.51L1165.29 528.51z" stroke="#037b0b"></path><path d="M1022.1 249.75a42.14 42.14 0 1 0-52.05-66.29z" fill="#d3b714"></path><path d="M111.78 165.79a14.71 14.71 0 1 0 27 11.7z" fill="#d3b714"></path><path d="M241.71 236.94 a32.61 32.61 0 1 0 65.22 0 a32.61 32.61 0 1 0 -65.22 0z" stroke="#d3b714"></path><path d="M1016.25 398.34 a37.88 37.88 0 1 0 75.76 0 a37.88 37.88 0 1 0 -75.76 0z" fill="#e73635"></path><path d="M1155.87 289.32a7.98 7.98 0 1 0-10.94 11.62z" fill="#e73635"></path><path d="M789.92 112.3L820.71 112.3L820.71 155.97L789.92 155.97z" fill="#037b0b"></path><path d="M263.8 361.53 a19.7 19.7 0 1 0 39.4 0 a19.7 19.7 0 1 0 -39.4 0z" stroke="#e73635"></path><path d="M1439.32 220.83L1490.49 220.83L1490.49 272L1439.32 272z" fill="#d3b714"></path><path d="M1075.54 71.61 a45.03 45.03 0 1 0 90.06 0 a45.03 45.03 0 1 0 -90.06 0z" fill="#d3b714"></path><path d="M196.81 448.03L251.55 448.03L251.55 502.77L196.81 502.77z" stroke="#e73635"></path><path d="M1374.51 86.36 a4.47 4.47 0 1 0 8.94 0 a4.47 4.47 0 1 0 -8.94 0z" stroke="#d3b714"></path><path d="M664.04 490.78L716.27 490.78L716.27 509.06L664.04 509.06z" fill="#e73635"></path><path d="M490.21 139.31a12.69 12.69 0 1 0 25.1 3.78z" stroke="#037b0b"></path><path d="M130.12 553.86a12.16 12.16 0 1 0-23.01 7.86z" stroke="#d3b714"></path><path d="M2.1 509.61a2.33 2.33 0 1 0-0.29 4.65z" stroke="#e73635"></path><path d="M1018.23 391.77L1032.74 391.77L1032.74 406.28L1018.23 406.28z" fill="#037b0b"></path></g><defs><mask id="SvgjsMask1000"><rect width="1440" height="560" fill="#ffffff"></rect></mask></defs></svg>